# xmcd CD database file
#
# Track frame offsets:
#	150
#	12615
#	25512
#	41515
#	56332
#	68805
#	82242
#	95755
#	106165
#	120997
#	132092
#	145185
#	157752
#	170860
#	181055
#
# Disc length: 2557 seconds
#
# Revision: 3
# Processed by: cddbd v1.5.2PL0 Copyright (c) Steve Scherf et al.
# Submitted via: CDex 1.51
#
DISCID=be09fb0f
DTITLE=Howlin' Wolf - Change My Way
DYEAR=1900
DGENRE=Blues
TTITLE0=Mr. Airplane Man
TTITLE1=Love Me Darlin'
TTITLE2=Change My Way
TTITLE3=I Walked From Dallas
TTITLE4=I Better Go Now
TTITLE5=New Crawlin' King Snake
TTITLE6=Just Like I Treat You
TTITLE7=I've Been Abused
TTITLE8=Don't Laugh At Me
TTITLE9=I Didn't Know
TTITLE10=I Ain't Superstitious
TTITLE11=Howlin' Blues
TTITLE12=My Mind Is Ramblin'
TTITLE13=Do The Do
TTITLE14=Hidden Charms
EXTD=
EXTT0=
EXTT1=
EXTT2=
EXTT3=
EXTT4=
EXTT5=
EXTT6=
EXTT7=
EXTT8=
EXTT9=
EXTT10=
EXTT11=
EXTT12=
EXTT13=
EXTT14=
PLAYORDER=
